<?xml version="1.0" encoding="utf-8"?>
<!-- Generator: Adobe Illustrator 16.0.3, SVG Export Plug-In . SVG Version: 6.00 Build 0)  -->
<!DOCTYPE svg PUBLIC "-//W3C//DTD SVG 1.1//EN" "http://www.w3.org/Graphics/SVG/1.1/DTD/svg11.dtd">
<svg version="1.1" id="Layer_1" xmlns="http://www.w3.org/2000/svg" xmlns:xlink="http://www.w3.org/1999/xlink" x="0px" y="0px"
	 width="1200px" height="1200px" viewBox="0 0 1200 1200" enable-background="new 0 0 1200 1200" xml:space="preserve">
<g>
	<g>
		<path fill="#C76500" d="M1119.234,702.397c4.211-13.731-0.874-30.723-15.272-36.575c8.841-14.178,4.911-36.303-11.763-43.368
			c19.66-14.03,14.212-53.092-16.487-53.092c-0.48,0-0.905,0.079-1.37,0.099c2.38-15.957-6.817-33.963-27.657-33.963
			c-3.411,0-6.502,0.5-9.291,1.381c-1.9-7.373-6.422-13.94-13.535-17.621c-0.704-13.914-10.004-27.301-27.97-27.301
			c-0.014,0-0.025,0.002-0.041,0.002c-0.585-0.561-1.207-1.087-1.853-1.596c21.355-13.103,16.393-54.041-15.038-54.041
			c-26.409,0-34.151,29.002-23.214,46.006c-0.329-0.009-0.639-0.047-0.975-0.047c-37.354,0-37.416,58.053,0,58.053
			c2.799,0,5.339-0.396,7.715-1.005c3.882,2.142,8.552,3.424,14.054,3.424c0.081,0,0.153-0.012,0.232-0.012
			c1.671,1.575,3.526,2.991,5.66,4.106c0.612,12.412,8.077,24.381,22.416,26.854c2.465,11.938,11.55,22.268,27.326,22.268
			c4.648,0,8.67-0.955,12.156-2.536c0.776,0.054,1.546,0.116,2.356,0.116c0.532,0,1.028-0.053,1.544-0.076
			c-1.882,12.581,3.289,26.402,15.856,31.696c-16.896,12.081-15.236,42.628,5.145,50.914c-8.771,14.067-4.98,35.973,11.365,43.215
			c-5.215,16.891,3.605,38.734,26.562,38.734C1139.926,758.032,1143.989,713.366,1119.234,702.397z"/>
		<path fill="#C76500" d="M838.662,329.893c-15.439,0-24.487,9.921-27.172,21.556c-3.343-1.392-7.172-2.206-11.53-2.206
			c-3.085,0-5.893,0.429-8.47,1.156c-1.444-13.188-10.693-25.346-27.814-25.346c-28.419,0-35.226,33.583-20.393,49.656
			c-17.863,14.898-11.922,51.937,17.976,51.937c15.428,0,24.476-9.91,27.169-21.536c3.337,1.391,7.176,2.185,11.532,2.185
			c15.439,0,24.487-9.921,27.173-21.557c3.342,1.393,7.169,2.206,11.529,2.206C876.017,387.945,876.078,329.893,838.662,329.893z"/>
		<path fill="#C76500" d="M584.682,305.704c-17.426,0-26.728,12.633-27.905,26.112c-3.171-1.21-6.75-1.922-10.798-1.922
			c-9.093,0-15.959,3.455-20.629,8.661c-4.004-9.029-12.443-15.918-25.328-15.918c-37.354,0-37.417,58.053,0,58.053
			c9.093,0,15.958-3.456,20.629-8.661c4.003,9.028,12.441,15.916,25.328,15.916c17.427,0,26.729-12.632,27.905-26.111
			c3.17,1.21,6.751,1.923,10.798,1.923C622.034,363.758,622.096,305.704,584.682,305.704z"/>
		<path fill="#C76500" d="M318.607,404.877c-20.84,0-30.058,18.064-27.654,34.041c-6.652,0.684-11.934,3.352-15.887,7.167
			c-3.246-10.693-12.093-19.438-26.608-19.438c-35.47,0-37.289,52.306-5.353,57.588c-3.961,16.565,5.06,36.748,27.122,36.748
			c16.676,0,25.897-11.572,27.692-24.381c18.36-1.912,26.416-18.801,24.147-33.85C355.923,459.277,354.826,404.877,318.607,404.877z
			"/>
		<path fill="#C76500" d="M157.296,580.745c3.273-16.329-5.817-35.573-27.362-35.573c-31.277,0-36.392,40.68-15.271,53.925
			c-0.764,3.809-0.825,7.771-0.242,11.618c-1.236-0.142-2.508-0.234-3.839-0.234c-37.354,0-37.416,58.053,0,58.053
			c20.855,0,30.072-18.094,27.647-34.078c1.221,0.138,2.484,0.214,3.798,0.214C173.304,634.669,178.419,593.988,157.296,580.745z"/>
		<path fill="#C76500" d="M93.651,748.356c-27.645,0-34.84,31.777-21.56,48.308c-24.927,10.838-21.015,55.704,11.884,55.704
			c27.646,0,34.841-31.777,21.561-48.308C130.46,793.224,126.55,748.356,93.651,748.356z"/>
		<path fill="#7DAC20" d="M1005.331,832.448c0,0,136.153,76.628,144.225-25.937c8.071-102.567-96.438-142.26-96.438-142.26
			s38.075-58.047,0-109.43c-38.075-51.385-117.589-41.248-117.589-41.248s72.975-34.902,0-120.569c-72.977-85.667-174.51,0-174.51,0
			s5.56-74.454-107.878-83.973c-83.41-7-117.395,64.936-117.395,64.936s-106.039-72.976-183.108,0
			c-77.07,72.977-70.743,122.526-70.743,122.526s-70.669-87.624-120.993-17.82c-50.324,69.803-18.324,137.518-18.324,137.518
			s-57.383,5.261-85.938,71.893c-28.557,66.629,44.233,92.489,44.233,92.489s-37.888,51.351-37.888,79.376
			s164.989,4.614,164.989,4.614L1005.331,832.448z"/>
		<path fill="#6A8400" d="M227.209,837.266c0,0-125.222,70.474-132.647-23.856c-7.426-94.33,88.696-130.838,88.696-130.838
			s-35.018-53.387,0-100.646c35.018-47.26,108.149-37.937,108.149-37.937s-67.118-32.1,0-110.89c67.12-78.791,160.501,0,160.501,0
			s-5.112-68.477,99.217-77.232c76.713-6.437,107.973,59.723,107.973,59.723s97.525-67.118,168.406,0
			c70.883,67.118,65.065,112.689,65.065,112.689s64.993-80.59,111.277-16.39s16.854,126.479,16.854,126.479
			s52.776,4.839,79.04,66.12c26.263,61.281-40.684,85.065-40.684,85.065s34.847,47.229,34.847,73.004
			c0,25.773-151.745,4.242-151.745,4.242L227.209,837.266z"/>
		<path fill="#FFC427" d="M1061.057,894.296c19.096,0,34.388-16.178,32.943-35.221c-19.023-250.87-228.584-448.508-484.324-448.508
			c-255.739,0-465.302,197.638-484.325,448.508c-1.445,19.043,13.847,35.219,32.943,35.219h902.763V894.296z"/>
		<path fill="#FFAA00" d="M379.076,731.425c-69.353-39.16-96.573-118.139-98.54-192.312
			c-87.733,80.888-145.61,193.672-155.186,319.962c-1.445,19.043,13.847,35.221,32.943,35.221h902.761
			c19.096,0,34.39-16.178,32.945-35.221c-1.684-22.202-4.891-43.979-9.458-65.247C1038.223,807.39,751.74,941.848,379.076,731.425z"
			/>
		<g>
			<path fill="#FFAA00" d="M315.708,565.434c-22.503,0-22.539,34.97,0,34.97C338.21,600.406,338.247,565.434,315.708,565.434z"/>
			<path fill="#FFAA00" d="M339.021,643.146c-22.501,0-22.539,34.968,0,34.968C361.522,678.116,361.562,643.146,339.021,643.146z"/>
			<path fill="#FFAA00" d="M407.125,549.035c-22.502,0-22.539,34.97,0,34.97C429.626,584.007,429.663,549.035,407.125,549.035z"/>
		</g>
		<g>
			<path fill="#FFAA00" d="M996.593,734.646c-14.355-13.536-35.415,8.752-21.035,22.31
				C989.913,770.49,1010.972,748.203,996.593,734.646z"/>
			<path fill="#FFAA00" d="M942.964,792.105c-14.355-13.536-35.414,8.752-21.035,22.31
				C936.286,827.949,957.342,805.663,942.964,792.105z"/>
			<path fill="#FFAA00" d="M1040.277,822.984c-14.355-13.534-35.414,8.753-21.035,22.311
				C1033.597,858.829,1054.655,836.543,1040.277,822.984z"/>
		</g>
	</g>
</g>
</svg>
